# xmcd
#
# Track frame offsets:
#	150
#	17342
#	38310
#	49610
#	63180
#	81842
#	105545
#	120677
#	140142
#	156420
#	170102
#	182537
#	198252
#	214985
#	233855
#	253005
#	268302
#	280877
#	299175
#	311905
#	323157
# Disc length: 4471 seconds
# Revision: 2
# Processed by: cddbd v1.5.2PL0 Copyright (c) Steve Scherf et al.
#
# Submitted via: libkcddb 0.31
#
DISCID=3e117515
DTITLE=Paul Geremia - I Really Don't Mind Livin' - My Kinda Place
DYEAR=1991
DGENRE=Blues
TTITLE0=I Just Roll Along
TTITLE1=Stone Sober Blues
TTITLE2=Stray Dog Shuffle
TTITLE3=Seesaw Blues
TTITLE4=Somethin' Gotta Be Arranged
TTITLE5=Diggin' Uncle Sam's Backyard
TTITLE6=I Really Don't Mind Livin'
TTITLE7=Slidell Blues
TTITLE8=My Kinda Place
TTITLE9=Nuts About that Gal
TTITLE10=Silver City Bound
TTITLE11=Money is King
TTITLE12=Shuckin' Sugar Blues
TTITLE13=Holly
TTITLE14=Broke Down Engine
TTITLE15=Oh Red
TTITLE16=Back Door Blues
TTITLE17=Artificial Heart
TTITLE18=Savanna Mama
TTITLE19=Foolish Frog
TTITLE20=Big Walter
EXTD=
EXTT0=
EXTT1=
EXTT2=
EXTT3=
EXTT4=
EXTT5=
EXTT6=
EXTT7=
EXTT8=
EXTT9=
EXTT10=
EXTT11=
EXTT12=
EXTT13=
EXTT14=
EXTT15=
EXTT16=
EXTT17=
EXTT18=
EXTT19=
EXTT20=
PLAYORDER=
